<svg width="25" height="28" viewBox="0 0 25 28" fill="none" xmlns="http://www.w3.org/2000/svg">
<path d="M15.2183 18.5694L16.5794 17.2083L12.9822 13.6111V9.13883H11.0377V14.3888L15.2183 18.5694ZM12.0099 23.7222C10.665 23.7222 9.40115 23.467 8.21828 22.9565C7.03541 22.4461 6.00647 21.7534 5.13147 20.8784C4.25647 20.0034 3.56376 18.9745 3.05334 17.7916C2.54293 16.6087 2.28772 15.3449 2.28772 13.9999C2.28772 12.655 2.54293 11.3911 3.05334 10.2083C3.56376 9.02541 4.25647 7.99647 5.13147 7.12147C6.00647 6.24647 7.03541 5.55376 8.21828 5.04335C9.40115 4.53293 10.665 4.27772 12.0099 4.27772C13.3548 4.27772 14.6187 4.53293 15.8016 5.04335C16.9845 5.55376 18.0134 6.24647 18.8884 7.12147C19.7634 7.99647 20.4561 9.02541 20.9665 10.2083C21.477 11.3911 21.7322 12.655 21.7322 13.9999C21.7322 15.3449 21.477 16.6087 20.9665 17.7916C20.4561 18.9745 19.7634 20.0034 18.8884 20.8784C18.0134 21.7534 16.9845 22.4461 15.8016 22.9565C14.6187 23.467 13.3548 23.7222 12.0099 23.7222ZM12.0099 21.7777C14.165 21.7777 16.0001 21.0202 17.5152 19.5052C19.0302 17.9901 19.7877 16.155 19.7877 13.9999C19.7877 11.8449 19.0302 10.0098 17.5152 8.49474C16.0001 6.97969 14.165 6.22217 12.0099 6.22217C9.85485 6.22217 8.01978 6.97969 6.50473 8.49474C4.98969 10.0098 4.23216 11.8449 4.23216 13.9999C4.23216 16.155 4.98969 17.9901 6.50473 19.5052C8.01978 21.0202 9.85485 21.7777 12.0099 21.7777Z" fill="#0066FF"/>
</svg>
