<svg width="25" height="28" viewBox="0 0 25 28" fill="none" xmlns="http://www.w3.org/2000/svg">
<path d="M5.20447 22.75V20.8056H10.0656V18.8611C8.72067 18.8611 7.57426 18.3872 6.62634 17.4392C5.67843 16.4913 5.20447 15.3449 5.20447 14C5.20447 13.0116 5.47588 12.1123 6.0187 11.3021C6.56153 10.4919 7.29475 9.90046 8.21836 9.52778C8.34799 8.97685 8.6356 8.53125 9.0812 8.19097C9.52681 7.85069 10.0332 7.68055 10.6003 7.68055L10.0656 6.17361L10.9892 5.83333L10.6489 4.95833L12.4961 4.27778L12.7878 5.20139L13.7114 4.86111L16.385 12.1528L15.4614 12.4931L15.8017 13.4167L13.9545 14.0972L13.6628 13.1736L12.7392 13.5139L12.1559 11.9097C11.9128 12.1366 11.6333 12.3067 11.3173 12.4201C11.0013 12.5336 10.6813 12.5741 10.3572 12.5417C10.0008 12.5093 9.66859 12.3999 9.36072 12.2135C9.05285 12.0272 8.78549 11.7963 8.55863 11.5208C8.12113 11.7801 7.77681 12.1285 7.52565 12.566C7.27449 13.0035 7.14891 13.4815 7.14891 14C7.14891 14.8102 7.43248 15.4988 7.99961 16.066C8.56674 16.6331 9.25539 16.9167 10.0656 16.9167H17.8434V18.8611H12.9822V20.8056H18.8156V22.75H5.20447ZM13.6142 11.6181L14.4892 11.2778L12.8364 6.70833L11.9128 7.04861L13.6142 11.6181ZM10.5517 11.0833C10.8272 11.0833 11.0581 10.9902 11.2444 10.8038C11.4307 10.6175 11.5239 10.3866 11.5239 10.1111C11.5239 9.83565 11.4307 9.60474 11.2444 9.4184C11.0581 9.23206 10.8272 9.13889 10.5517 9.13889C10.2762 9.13889 10.0453 9.23206 9.85898 9.4184C9.67264 9.60474 9.57947 9.83565 9.57947 10.1111C9.57947 10.3866 9.67264 10.6175 9.85898 10.8038C10.0453 10.9902 10.2762 11.0833 10.5517 11.0833Z" fill="#8A2BE2"/>
</svg>
