<svg width="40" height="40" viewBox="0 0 40 40" fill="none" xmlns="http://www.w3.org/2000/svg">
<rect width="40" height="40" rx="12" fill="#D1FAE5"/>
<path d="M23.4651 17.3398C23.3245 14.9492 22.4339 12.5586 20.8401 10.5898C20.4182 10.1211 19.6682 10.1211 19.2932 10.5898C17.6057 12.5586 16.7151 14.9492 16.5276 17.3398C17.7932 18.043 18.9651 18.9336 19.9964 20.0117C21.0276 18.9336 22.1995 18.043 23.4651 17.3398V17.3398M16.9964 20.0117C16.8557 19.918 16.6682 19.8242 16.5276 19.7305C16.6682 19.8242 16.8557 19.918 16.9964 20.0117V20.0117M23.4182 19.7773C23.2776 19.8711 23.137 19.918 22.9964 20.0117C23.137 19.918 23.2776 19.8711 23.4182 19.7773V19.7773M19.9964 23.1992C18.0276 20.1992 14.8401 18.1367 11.1839 17.8086C10.5276 17.7148 10.012 18.2773 10.0589 18.8867C10.5276 23.7148 13.7151 27.6992 18.0276 29.2461C18.6839 29.4805 19.3401 29.6211 19.9964 29.7617C20.6995 29.6211 21.3557 29.4336 21.9651 29.2461C26.3245 27.6992 29.512 23.7148 29.9339 18.8867C30.0276 18.2773 29.4651 17.7148 28.8557 17.8086C25.1526 18.1367 21.9651 20.1992 19.9964 23.1992V23.1992" fill="#059669"/>
</svg>
