<svg width="40" height="40" viewBox="0 0 40 40" fill="none" xmlns="http://www.w3.org/2000/svg">
<rect width="40" height="40" rx="12" fill="#DBEAFE"/>
<path d="M20.982 16.5792C20.1852 16.5792 19.5758 17.1886 19.5758 17.9854C19.5758 18.7823 20.1852 19.4386 20.982 19.4386C21.7789 19.4386 22.4352 18.7823 22.4352 17.9854C22.4352 17.1886 21.7789 16.5792 20.982 16.5792V16.5792M21.2164 11.0011C17.3727 10.9073 14.1852 13.8604 13.9977 17.6573L12.0758 20.1886C11.8414 20.5167 12.0758 20.9854 12.4977 20.9854H13.9977V23.9854C13.9977 25.1104 14.8883 26.0011 16.0133 26.0011H16.9977V28.0167C16.9977 28.5323 17.4664 29.0011 17.982 29.0011H22.9977C23.5602 29.0011 23.982 28.5323 23.982 28.0167V24.3136C26.4195 23.1417 28.107 20.6573 28.0133 17.7511C27.8727 14.1417 24.8258 11.0948 21.2164 11.0011V11.0011M23.982 17.9854C23.982 18.1261 23.982 18.2667 23.982 18.4073L24.8258 19.0636C24.8727 19.1104 24.9195 19.2042 24.8727 19.2979L24.0758 20.7042C24.0289 20.7979 23.8883 20.7979 23.7945 20.7979L22.8102 20.3761C22.6227 20.5636 22.3883 20.6573 22.1539 20.7511L22.0133 21.8292C21.9664 21.9229 21.9195 22.0167 21.7789 22.0167H20.1852C20.0914 22.0167 19.9977 21.9229 19.9977 21.8292L19.857 20.7511C19.5758 20.6573 19.3883 20.5636 19.1539 20.3761L18.1695 20.7979C18.0758 20.7979 17.982 20.7979 17.9352 20.7042L17.1383 19.2979C17.0914 19.2042 17.0914 19.1104 17.1852 19.0636L18.0289 18.4073C18.0289 18.2667 17.982 18.1261 17.982 17.9854C17.982 17.8917 18.0289 17.7511 18.0289 17.6104L17.1852 16.9542C17.0914 16.9073 17.0914 16.8136 17.1383 16.6729L17.9352 15.3136C17.982 15.2198 18.0758 15.1729 18.1695 15.2198L19.2008 15.6417C19.3883 15.4542 19.6227 15.3136 19.857 15.2198L19.9977 14.1886C19.9977 14.0479 20.0914 14.0011 20.1852 14.0011H21.7789C21.9195 14.0011 21.9664 14.0479 22.0133 14.1886L22.1539 15.2198C22.3883 15.3136 22.6227 15.4542 22.8102 15.6417L23.7945 15.2198C23.8883 15.1729 24.0289 15.2198 24.0758 15.3136L24.8727 16.6729C24.9195 16.7667 24.8727 16.9073 24.8258 16.9542L23.9352 17.6104C23.982 17.7511 23.982 17.8448 23.982 17.9854V17.9854" fill="#2563EB"/>
</svg>
