<svg width="97" height="26" viewBox="0 0 97 26" fill="none" xmlns="http://www.w3.org/2000/svg">
<g filter="url(#filter0_d_87_1157)">
<g clip-path="url(#clip0_87_1157)">
<g filter="url(#filter1_i_87_1157)">
<rect x="2.90186" y="0.957642" width="19.9605" height="19.9605" fill="url(#paint0_radial_87_1157)"/>
<rect x="2.90186" y="0.957642" width="19.9605" height="19.9605" fill="url(#paint1_linear_87_1157)"/>
</g>
<ellipse cx="20.6982" cy="5.94769" rx="3.00611" ry="2.94598" fill="url(#paint2_linear_87_1157)"/>
<ellipse cx="20.3978" cy="6.30848" rx="1.74354" ry="1.6233" fill="url(#paint3_linear_87_1157)"/>
<ellipse cx="5.0669" cy="5.94769" rx="3.00611" ry="2.94598" fill="url(#paint4_linear_87_1157)"/>
<ellipse cx="5.24647" cy="6.30848" rx="1.74354" ry="1.6233" fill="url(#paint5_linear_87_1157)"/>
<g filter="url(#filter2_i_87_1157)">
<path d="M-0.344727 16.2601C-0.344727 9.66822 4.99903 4.32446 11.5909 4.32446H14.1734C20.7653 4.32446 26.109 9.66822 26.109 16.2601C26.109 19.696 23.3237 22.4813 19.8877 22.4813H5.87654C2.44063 22.4813 -0.344727 19.696 -0.344727 16.2601Z" fill="url(#paint6_linear_87_1157)"/>
</g>
<path d="M11.5601 18.6334C11.5601 18.6334 12.1895 19.1144 12.9403 19.1144C13.6911 19.1144 14.2054 18.6704 14.2054 18.6704" stroke="black" stroke-width="0.601221" stroke-linecap="round"/>
<ellipse cx="17.7988" cy="11.7283" rx="3.95437" ry="4.5059" transform="rotate(-33.7753 17.7988 11.7283)" fill="url(#paint7_linear_87_1157)"/>
<ellipse cx="16.4471" cy="11.0753" rx="2.5509" ry="2.45642" fill="white"/>
<ellipse cx="3.95437" cy="4.5059" rx="3.95437" ry="4.5059" transform="matrix(-0.831224 -0.555937 -0.555937 0.831224 13.9536 9.99219)" fill="url(#paint8_linear_87_1157)"/>
<ellipse cx="2.5509" cy="2.45642" rx="2.5509" ry="2.45642" transform="matrix(-1 0 0 1 12.0642 8.42981)" fill="white"/>
<ellipse cx="15.6484" cy="10.9981" rx="1.32269" ry="1.6233" fill="black"/>
<ellipse cx="15.1073" cy="10.2765" rx="0.541099" ry="0.661344" fill="white"/>
<ellipse cx="10.3574" cy="10.9981" rx="1.32269" ry="1.6233" fill="black"/>
<ellipse cx="9.81625" cy="10.2765" rx="0.541099" ry="0.661344" fill="white"/>
<path d="M14.6867 15.868C14.6867 16.4656 13.364 16.9502 12.883 16.9502C12.2818 16.9502 11.0793 16.4656 11.0793 15.868C11.0793 15.2703 11.3048 14.7858 12.883 14.7858C14.4612 14.7858 14.6867 15.2703 14.6867 15.868Z" fill="url(#paint9_linear_87_1157)"/>
</g>
<rect x="2.62133" y="0.697378" width="20.481" height="20.481" rx="4.08831" stroke="white" stroke-width="0.480977" shape-rendering="crispEdges"/>
</g>
<path d="M36.8954 13.7539H31.0394V11.4259H37.2074C38.2634 11.4259 39.0154 11.1939 39.4634 10.7299C39.9274 10.2659 40.1594 9.45787 40.1594 8.30587C40.1594 7.15387 39.9274 6.34587 39.4634 5.88187C39.0154 5.41787 38.2634 5.18587 37.2074 5.18587H31.0394V2.85787H36.8954C38.0154 2.85787 39.0154 3.07387 39.8954 3.50587C40.7754 3.93787 41.4634 4.56187 41.9594 5.37787C42.4714 6.17787 42.7274 7.15387 42.7274 8.30587C42.7274 9.45787 42.4714 10.4419 41.9594 11.2579C41.4634 12.0739 40.7754 12.6979 39.8954 13.1299C39.0154 13.5459 38.0154 13.7539 36.8954 13.7539ZM32.6474 18.9379H30.0554V2.85787H32.6474V18.9379ZM53.4768 18.9379H51.0768V16.5859L51.0048 15.9379V11.3539C51.0048 10.4579 50.7888 9.84987 50.3568 9.52987C49.9408 9.20987 49.2608 9.04987 48.3168 9.04987C47.3728 9.04987 46.6928 9.21787 46.2768 9.55387C45.8768 9.88987 45.6768 10.4499 45.6768 11.2339V11.5939H43.1808V11.3539C43.1808 10.4579 43.3968 9.66587 43.8288 8.97787C44.2768 8.28987 44.8928 7.75387 45.6768 7.36987C46.4768 6.96987 47.4048 6.76987 48.4608 6.76987C49.5808 6.76987 50.5088 6.97787 51.2448 7.39387C51.9808 7.80987 52.5328 8.38587 52.9008 9.12187C53.2848 9.84187 53.4768 10.6979 53.4768 11.6899V18.9379ZM46.6368 19.1779C45.5648 19.1779 44.6608 18.9059 43.9248 18.3619C43.2048 17.8019 42.8448 17.0099 42.8448 15.9859C42.8448 15.3139 42.9968 14.7539 43.3008 14.3059C43.6208 13.8579 44.0768 13.4899 44.6688 13.2019C45.2608 12.9139 45.9808 12.7139 46.8288 12.6019L51.2448 11.9779V13.8019L47.2128 14.4019C46.5248 14.4979 46.0448 14.6419 45.7728 14.8339C45.5008 15.0259 45.3648 15.3459 45.3648 15.7939C45.3648 16.2579 45.5248 16.5939 45.8448 16.8019C46.1808 17.0099 46.7248 17.1139 47.4768 17.1139C48.0528 17.1139 48.6048 17.0259 49.1328 16.8499C49.6768 16.6579 50.1248 16.3459 50.4768 15.9139C50.8288 15.4659 51.0048 14.8419 51.0048 14.0419L51.3408 17.0899L50.9568 17.0659C50.7328 17.4339 50.4208 17.7779 50.0208 18.0979C49.6368 18.4179 49.1648 18.6819 48.6048 18.8899C48.0448 19.0819 47.3888 19.1779 46.6368 19.1779ZM66.3507 18.9379H63.7587V12.0019C63.7587 10.9459 63.5587 10.1859 63.1587 9.72187C62.7587 9.24187 62.0067 9.00187 60.9027 9.00187C60.1987 9.00187 59.6227 9.10587 59.1747 9.31387C58.7267 9.50587 58.3907 9.82587 58.1667 10.2739C57.9427 10.7059 57.8307 11.2979 57.8307 12.0499H57.3747L57.1587 9.24187H57.7347C57.9107 8.80987 58.1747 8.40987 58.5267 8.04187C58.8787 7.67387 59.3267 7.36987 59.8707 7.12987C60.4307 6.88987 61.0947 6.76987 61.8627 6.76987C62.9027 6.76987 63.7507 6.96987 64.4067 7.36987C65.0627 7.76987 65.5507 8.32187 65.8707 9.02587C66.1907 9.72987 66.3507 10.5379 66.3507 11.4499V18.9379ZM57.8307 18.9379H55.2387V7.00987H57.6147V10.5859L57.8307 10.7059V18.9379ZM72.8416 19.1779C71.1456 19.1779 69.8416 18.6179 68.9296 17.4979C68.0336 16.3619 67.5856 14.8499 67.5856 12.9619C67.5856 11.0739 68.0256 9.56987 68.9056 8.44987C69.8016 7.32987 71.0656 6.76987 72.6976 6.76987C73.7536 6.76987 74.6016 6.98587 75.2416 7.41787C75.8976 7.83387 76.3536 8.31387 76.6096 8.85787H77.2576L77.1376 11.9059H76.6816C76.6816 11.2339 76.5536 10.6819 76.2976 10.2499C76.0416 9.81787 75.6736 9.49787 75.1936 9.28987C74.7136 9.08187 74.1216 8.97787 73.4176 8.97787C72.8416 8.97787 72.3456 9.04987 71.9296 9.19387C71.5296 9.33787 71.1936 9.56187 70.9216 9.86587C70.6656 10.1699 70.4736 10.5779 70.3456 11.0899C70.2336 11.6019 70.1776 12.2259 70.1776 12.9619C70.1776 13.6819 70.2336 14.3059 70.3456 14.8339C70.4736 15.3459 70.6656 15.7619 70.9216 16.0819C71.1936 16.3859 71.5376 16.6099 71.9536 16.7539C72.3696 16.8979 72.8576 16.9699 73.4176 16.9699C74.1216 16.9699 74.7136 16.8659 75.1936 16.6579C75.6736 16.4339 76.0416 16.1059 76.2976 15.6739C76.5536 15.2419 76.6816 14.6979 76.6816 14.0419H77.1376L77.2576 16.9699H76.7776C76.5056 17.6579 76.0336 18.2019 75.3616 18.6019C74.7056 18.9859 73.8656 19.1779 72.8416 19.1779ZM79.2736 18.9379H76.8736V16.1059L76.6816 15.7939V2.85787H79.2736V18.9379ZM91.0902 18.9379H88.6902V16.5859L88.6182 15.9379V11.3539C88.6182 10.4579 88.4022 9.84987 87.9702 9.52987C87.5542 9.20987 86.8742 9.04987 85.9302 9.04987C84.9862 9.04987 84.3062 9.21787 83.8902 9.55387C83.4902 9.88987 83.2902 10.4499 83.2902 11.2339V11.5939H80.7942V11.3539C80.7942 10.4579 81.0102 9.66587 81.4422 8.97787C81.8902 8.28987 82.5062 7.75387 83.2902 7.36987C84.0902 6.96987 85.0182 6.76987 86.0742 6.76987C87.1942 6.76987 88.1222 6.97787 88.8582 7.39387C89.5942 7.80987 90.1462 8.38587 90.5142 9.12187C90.8982 9.84187 91.0902 10.6979 91.0902 11.6899V18.9379ZM84.2502 19.1779C83.1782 19.1779 82.2742 18.9059 81.5382 18.3619C80.8182 17.8019 80.4582 17.0099 80.4582 15.9859C80.4582 15.3139 80.6102 14.7539 80.9142 14.3059C81.2342 13.8579 81.6902 13.4899 82.2822 13.2019C82.8742 12.9139 83.5942 12.7139 84.4422 12.6019L88.8582 11.9779V13.8019L84.8262 14.4019C84.1382 14.4979 83.6582 14.6419 83.3862 14.8339C83.1142 15.0259 82.9782 15.3459 82.9782 15.7939C82.9782 16.2579 83.1382 16.5939 83.4582 16.8019C83.7942 17.0099 84.3382 17.1139 85.0902 17.1139C85.6662 17.1139 86.2182 17.0259 86.7462 16.8499C87.2902 16.6579 87.7382 16.3459 88.0902 15.9139C88.4422 15.4659 88.6182 14.8419 88.6182 14.0419L88.9542 17.0899L88.5702 17.0659C88.3462 17.4339 88.0342 17.7779 87.6342 18.0979C87.2502 18.4179 86.7782 18.6819 86.2182 18.8899C85.6582 19.0819 85.0022 19.1779 84.2502 19.1779ZM95.2762 5.49787H92.7082L92.6842 2.85787H95.2762V5.49787ZM95.3002 18.9379H92.7082V6.93787H95.3002V18.9379Z" fill="url(#paint10_linear_87_1157)"/>
<defs>
<filter id="filter0_d_87_1157" x="2.28882e-05" y="-1.89543e-05" width="25.7236" height="25.7236" filterUnits="userSpaceOnUse" color-interpolation-filters="sRGB">
<feFlood flood-opacity="0" result="BackgroundImageFix"/>
<feColorMatrix in="SourceAlpha" type="matrix" values="0 0 0 0 0 0 0 0 0 0 0 0 0 0 0 0 0 0 127 0" result="hardAlpha"/>
<feOffset dy="1.92391"/>
<feGaussianBlur stdDeviation="1.19042"/>
<feComposite in2="hardAlpha" operator="out"/>
<feColorMatrix type="matrix" values="0 0 0 0 0.439216 0 0 0 0 0.176471 0 0 0 0 0.694118 0 0 0 0.18 0"/>
<feBlend mode="normal" in2="BackgroundImageFix" result="effect1_dropShadow_87_1157"/>
<feBlend mode="normal" in="SourceGraphic" in2="effect1_dropShadow_87_1157" result="shape"/>
</filter>
<filter id="filter1_i_87_1157" x="2.90186" y="0.957642" width="19.9604" height="19.9606" filterUnits="userSpaceOnUse" color-interpolation-filters="sRGB">
<feFlood flood-opacity="0" result="BackgroundImageFix"/>
<feBlend mode="normal" in="SourceGraphic" in2="BackgroundImageFix" result="shape"/>
<feColorMatrix in="SourceAlpha" type="matrix" values="0 0 0 0 0 0 0 0 0 0 0 0 0 0 0 0 0 0 127 0" result="hardAlpha"/>
<feOffset/>
<feGaussianBlur stdDeviation="0.925881"/>
<feComposite in2="hardAlpha" operator="arithmetic" k2="-1" k3="1"/>
<feColorMatrix type="matrix" values="0 0 0 0 0.634178 0 0 0 0 0.254808 0 0 0 0 1 0 0 0 0.1 0"/>
<feBlend mode="normal" in2="shape" result="effect1_innerShadow_87_1157"/>
</filter>
<filter id="filter2_i_87_1157" x="-0.344727" y="4.32446" width="26.4539" height="18.8749" filterUnits="userSpaceOnUse" color-interpolation-filters="sRGB">
<feFlood flood-opacity="0" result="BackgroundImageFix"/>
<feBlend mode="normal" in="SourceGraphic" in2="BackgroundImageFix" result="shape"/>
<feColorMatrix in="SourceAlpha" type="matrix" values="0 0 0 0 0 0 0 0 0 0 0 0 0 0 0 0 0 0 127 0" result="hardAlpha"/>
<feOffset dy="0.755821"/>
<feGaussianBlur stdDeviation="0.359015"/>
<feComposite in2="hardAlpha" operator="arithmetic" k2="-1" k3="1"/>
<feColorMatrix type="matrix" values="0 0 0 0 0.634178 0 0 0 0 0.254808 0 0 0 0 1 0 0 0 0.24 0"/>
<feBlend mode="normal" in2="shape" result="effect1_innerShadow_87_1157"/>
</filter>
<radialGradient id="paint0_radial_87_1157" cx="0" cy="0" r="1" gradientUnits="userSpaceOnUse" gradientTransform="translate(12.9027 20.8985) rotate(-90) scale(19.9212 16.4682)">
<stop stop-color="#0041C9"/>
<stop offset="1" stop-color="#A241FF"/>
</radialGradient>
<linearGradient id="paint1_linear_87_1157" x1="12.8821" y1="0.957642" x2="12.8821" y2="25.728" gradientUnits="userSpaceOnUse">
<stop offset="0.174181" stop-color="white"/>
<stop offset="0.706731" stop-color="#A241FF"/>
<stop offset="1" stop-color="#0041C9"/>
</linearGradient>
<linearGradient id="paint2_linear_87_1157" x1="20.6982" y1="3.00171" x2="20.6982" y2="8.89368" gradientUnits="userSpaceOnUse">
<stop stop-color="#002F91"/>
<stop offset="1"/>
</linearGradient>
<linearGradient id="paint3_linear_87_1157" x1="20.3978" y1="4.68518" x2="20.3978" y2="7.93178" gradientUnits="userSpaceOnUse">
<stop stop-color="#A241FF"/>
<stop offset="1"/>
</linearGradient>
<linearGradient id="paint4_linear_87_1157" x1="5.0669" y1="3.00171" x2="5.0669" y2="8.89368" gradientUnits="userSpaceOnUse">
<stop stop-color="#002F91"/>
<stop offset="1"/>
</linearGradient>
<linearGradient id="paint5_linear_87_1157" x1="5.24647" y1="4.68518" x2="5.24647" y2="7.93178" gradientUnits="userSpaceOnUse">
<stop stop-color="#A241FF"/>
<stop offset="1"/>
</linearGradient>
<linearGradient id="paint6_linear_87_1157" x1="12.8821" y1="4.32446" x2="12.8821" y2="22.4813" gradientUnits="userSpaceOnUse">
<stop offset="0.59903" stop-color="white"/>
<stop offset="1" stop-color="#EAD4FF"/>
</linearGradient>
<linearGradient id="paint7_linear_87_1157" x1="17.7988" y1="7.22241" x2="17.7988" y2="16.2342" gradientUnits="userSpaceOnUse">
<stop stop-color="#002F91"/>
<stop offset="1"/>
</linearGradient>
<linearGradient id="paint8_linear_87_1157" x1="3.95437" y1="0" x2="3.95437" y2="9.0118" gradientUnits="userSpaceOnUse">
<stop stop-color="#002F91"/>
<stop offset="1"/>
</linearGradient>
<linearGradient id="paint9_linear_87_1157" x1="12.883" y1="14.7858" x2="12.883" y2="16.9502" gradientUnits="userSpaceOnUse">
<stop stop-color="#A241FF"/>
<stop offset="1"/>
</linearGradient>
<linearGradient id="paint10_linear_87_1157" x1="29.8896" y1="14.5288" x2="81.3964" y2="-19.9578" gradientUnits="userSpaceOnUse">
<stop/>
<stop offset="1" stop-color="#0041C9"/>
</linearGradient>
<clipPath id="clip0_87_1157">
<rect x="2.86182" y="0.937866" width="20" height="20" rx="3.84782" fill="white"/>
</clipPath>
</defs>
</svg>
