<svg width="22" height="22" viewBox="0 0 22 22" fill="none" xmlns="http://www.w3.org/2000/svg">
<path d="M9.23076 2.58494L2.87825 7.67243C2.16325 8.24076 1.70492 9.44163 1.86075 10.34L3.07992 17.6366C3.29992 18.9383 4.54658 19.9924 5.86658 19.9924H16.1333C17.4441 19.9924 18.6999 18.9291 18.9199 17.6366L20.1391 10.34C20.2858 9.44163 19.8274 8.24076 19.1216 7.67243L12.7691 2.59411C11.7882 1.80578 10.2024 1.80577 9.23076 2.58494Z" stroke="black" stroke-width="1.375" stroke-linecap="round" stroke-linejoin="round"/>
<path d="M11.0003 14.2083C12.2659 14.2083 13.292 13.1823 13.292 11.9167C13.292 10.651 12.2659 9.625 11.0003 9.625C9.73463 9.625 8.70862 10.651 8.70862 11.9167C8.70862 13.1823 9.73463 14.2083 11.0003 14.2083Z" stroke="black" stroke-width="1.375" stroke-linecap="round" stroke-linejoin="round"/>
</svg>
