<svg width="22" height="22" viewBox="0 0 22 22" fill="none" xmlns="http://www.w3.org/2000/svg">
<path d="M8.39635 10.6517C8.36885 10.6517 8.35052 10.6517 8.32302 10.6517C8.27719 10.6425 8.21302 10.6425 8.15802 10.6517C5.49969 10.5692 3.49219 8.47921 3.49219 5.90337C3.49219 3.28171 5.62802 1.14587 8.24969 1.14587C10.8714 1.14587 13.0072 3.28171 13.0072 5.90337C12.998 8.47921 10.9814 10.5692 8.42385 10.6517C8.41469 10.6517 8.40552 10.6517 8.39635 10.6517ZM8.24969 2.52087C6.38885 2.52087 4.86719 4.04254 4.86719 5.90337C4.86719 7.73671 6.29719 9.21254 8.12135 9.27671C8.17635 9.26754 8.29552 9.26754 8.41469 9.27671C10.2114 9.19421 11.623 7.71837 11.6322 5.90337C11.6322 4.04254 10.1105 2.52087 8.24969 2.52087Z" fill="#292D32"/>
<path d="M15.1614 10.7708C15.1339 10.7708 15.1064 10.7708 15.0789 10.7616C14.7031 10.7983 14.3181 10.5325 14.2814 10.1566C14.2448 9.78079 14.4739 9.44163 14.8498 9.39579C14.9598 9.38663 15.0789 9.38663 15.1798 9.38663C16.5181 9.31329 17.5631 8.21329 17.5631 6.86579C17.5631 5.47246 16.4356 4.34496 15.0423 4.34496C14.6664 4.35413 14.3548 4.04246 14.3548 3.66663C14.3548 3.29079 14.6664 2.97913 15.0423 2.97913C17.1873 2.97913 18.9381 4.72996 18.9381 6.87496C18.9381 8.98329 17.2881 10.6883 15.1889 10.7708C15.1798 10.7708 15.1706 10.7708 15.1614 10.7708Z" fill="#292D32"/>
<path d="M8.40548 20.6708C6.60881 20.6708 4.80298 20.2125 3.43714 19.2958C2.16298 18.4525 1.46631 17.2975 1.46631 16.0416C1.46631 14.7858 2.16298 13.6216 3.43714 12.7691C6.18714 10.945 10.6421 10.945 13.3738 12.7691C14.6388 13.6125 15.3446 14.7675 15.3446 16.0233C15.3446 17.2791 14.648 18.4433 13.3738 19.2958C11.9988 20.2125 10.2021 20.6708 8.40548 20.6708ZM4.19798 13.9241C3.31798 14.5108 2.84131 15.2625 2.84131 16.0508C2.84131 16.83 3.32714 17.5816 4.19798 18.1591C6.48048 19.69 10.3305 19.69 12.613 18.1591C13.493 17.5725 13.9696 16.8208 13.9696 16.0325C13.9696 15.2533 13.4838 14.5016 12.613 13.9241C10.3305 12.4025 6.48048 12.4025 4.19798 13.9241Z" fill="#292D32"/>
<path d="M16.8113 19.0209C16.4905 19.0209 16.2063 18.8008 16.1422 18.4708C16.0688 18.095 16.3072 17.7375 16.6738 17.655C17.2513 17.5359 17.783 17.3067 18.1955 16.9859C18.718 16.5917 19.0022 16.0967 19.0022 15.5742C19.0022 15.0517 18.718 14.5567 18.2047 14.1717C17.8013 13.86 17.2972 13.64 16.7013 13.5025C16.3347 13.42 16.0963 13.0534 16.1788 12.6775C16.2613 12.3109 16.628 12.0725 17.0038 12.155C17.7922 12.3292 18.4797 12.6409 19.0388 13.0717C19.8913 13.7134 20.3772 14.6209 20.3772 15.5742C20.3772 16.5275 19.8822 17.435 19.0297 18.0858C18.4613 18.5258 17.7463 18.8467 16.958 19.0025C16.903 19.0208 16.8572 19.0209 16.8113 19.0209Z" fill="#292D32"/>
</svg>
