<svg width="114" height="93" viewBox="0 0 114 93" fill="none" xmlns="http://www.w3.org/2000/svg">
<g clip-path="url(#clip0_305_1847)">
<ellipse cx="81.8481" cy="14.9688" rx="11.5909" ry="11.3591" transform="rotate(-10.4931 81.8481 14.9688)" fill="url(#paint0_linear_305_1847)"/>
<ellipse cx="80.9616" cy="16.5475" rx="6.72273" ry="6.25909" transform="rotate(-10.4931 80.9616 16.5475)" fill="url(#paint1_linear_305_1847)"/>
<ellipse cx="22.5834" cy="25.9454" rx="11.5909" ry="11.3591" transform="rotate(-10.4931 22.5834 25.9454)" fill="url(#paint2_linear_305_1847)"/>
<ellipse cx="23.5207" cy="27.1865" rx="6.72273" ry="6.25909" transform="rotate(-10.4931 23.5207 27.1865)" fill="url(#paint3_linear_305_1847)"/>
<g filter="url(#filter0_i_305_1847)">
<path d="M13.8248 65.2138C9.46444 41.6717 25.0144 19.0523 48.5565 14.692L54.0236 13.6794C77.5657 9.31902 100.185 24.8689 104.545 48.4111C107.227 62.8873 97.6649 76.7961 83.1887 79.4773L44.891 86.5706C30.4148 89.2518 16.506 79.6901 13.8248 65.2138Z" fill="url(#paint4_linear_305_1847)"/>
</g>
<ellipse cx="75.2787" cy="40.4765" rx="15.2472" ry="17.3738" transform="rotate(-39.3925 75.2787 40.4765)" fill="url(#paint5_linear_305_1847)"/>
<ellipse cx="69.8462" cy="38.4807" rx="9.83571" ry="9.47143" transform="rotate(-5.61719 69.8462 38.4807)" fill="white"/>
<ellipse cx="71.1249" cy="36.2391" rx="5.1" ry="6.25909" transform="rotate(-5.61719 71.1249 36.2391)" fill="black"/>
<ellipse cx="68.7764" cy="33.6749" rx="2.08636" ry="2.55" transform="rotate(-5.61719 68.7764 33.6749)" fill="white"/>
<ellipse cx="15.2472" cy="17.3738" rx="15.2472" ry="17.3738" transform="matrix(-0.881649 -0.471906 -0.471906 0.881649 59.8701 35.2661)" fill="url(#paint6_linear_305_1847)"/>
<ellipse cx="9.83571" cy="9.47143" rx="9.83571" ry="9.47143" transform="matrix(-0.995198 0.0978814 0.0978814 0.995198 52.0295 29.9838)" fill="white"/>
<ellipse cx="47.3049" cy="39.1728" rx="5.1" ry="6.25909" transform="rotate(-5.61719 47.3049 39.1728)" fill="black"/>
<ellipse cx="44.9563" cy="36.6086" rx="2.08636" ry="2.55" transform="rotate(-5.61719 44.9563 36.6086)" fill="white"/>
<path d="M67.9033 56.9382C68.1289 59.2317 63.2362 61.5901 61.3906 61.7716C59.0836 61.9985 54.2866 60.5931 54.061 58.2997C53.8354 56.0062 54.5177 54.0619 60.5737 53.4663C66.6297 52.8706 67.6777 54.6448 67.9033 56.9382Z" fill="url(#paint7_linear_305_1847)"/>
<circle cx="67.5028" cy="69.3455" r="3.34" transform="rotate(-4.90499 67.5028 69.3455)" stroke="black" stroke-width="2.32"/>
</g>
<defs>
<filter id="filter0_i_305_1847" x="13.092" y="12.9467" width="91.9041" height="76.843" filterUnits="userSpaceOnUse" color-interpolation-filters="sRGB">
<feFlood flood-opacity="0" result="BackgroundImageFix"/>
<feBlend mode="normal" in="SourceGraphic" in2="BackgroundImageFix" result="shape"/>
<feColorMatrix in="SourceAlpha" type="matrix" values="0 0 0 0 0 0 0 0 0 0 0 0 0 0 0 0 0 0 127 0" result="hardAlpha"/>
<feOffset dy="2.91429"/>
<feGaussianBlur stdDeviation="1.38429"/>
<feComposite in2="hardAlpha" operator="arithmetic" k2="-1" k3="1"/>
<feColorMatrix type="matrix" values="0 0 0 0 0.634178 0 0 0 0 0.254808 0 0 0 0 1 0 0 0 0.24 0"/>
<feBlend mode="normal" in2="shape" result="effect1_innerShadow_305_1847"/>
</filter>
<linearGradient id="paint0_linear_305_1847" x1="81.8481" y1="3.60967" x2="81.8481" y2="26.3279" gradientUnits="userSpaceOnUse">
<stop stop-color="#002F91"/>
<stop offset="1"/>
</linearGradient>
<linearGradient id="paint1_linear_305_1847" x1="80.9616" y1="10.2884" x2="80.9616" y2="22.8066" gradientUnits="userSpaceOnUse">
<stop stop-color="#A241FF"/>
<stop offset="1"/>
</linearGradient>
<linearGradient id="paint2_linear_305_1847" x1="22.5834" y1="14.5864" x2="22.5834" y2="37.3045" gradientUnits="userSpaceOnUse">
<stop stop-color="#002F91"/>
<stop offset="1"/>
</linearGradient>
<linearGradient id="paint3_linear_305_1847" x1="23.5207" y1="20.9274" x2="23.5207" y2="33.4455" gradientUnits="userSpaceOnUse">
<stop stop-color="#A241FF"/>
<stop offset="1"/>
</linearGradient>
<linearGradient id="paint4_linear_305_1847" x1="51.29" y1="14.1857" x2="64.0399" y2="83.024" gradientUnits="userSpaceOnUse">
<stop offset="0.59903" stop-color="white"/>
<stop offset="1" stop-color="#EAD4FF"/>
</linearGradient>
<linearGradient id="paint5_linear_305_1847" x1="75.2787" y1="23.1027" x2="75.2787" y2="57.8503" gradientUnits="userSpaceOnUse">
<stop stop-color="#002F91"/>
<stop offset="1"/>
</linearGradient>
<linearGradient id="paint6_linear_305_1847" x1="15.2472" y1="0" x2="15.2472" y2="34.7476" gradientUnits="userSpaceOnUse">
<stop stop-color="#002F91"/>
<stop offset="1"/>
</linearGradient>
<linearGradient id="paint7_linear_305_1847" x1="60.5737" y1="53.4663" x2="61.3906" y2="61.7716" gradientUnits="userSpaceOnUse">
<stop stop-color="#A241FF"/>
<stop offset="1"/>
</linearGradient>
<clipPath id="clip0_305_1847">
<rect width="102" height="75.1091" fill="white" transform="translate(0 18.5759) rotate(-10.4931)"/>
</clipPath>
</defs>
</svg>
