<svg width="234" height="176" viewBox="0 0 234 176" fill="none" xmlns="http://www.w3.org/2000/svg">
<path d="M0 49.5L36 65.7L63 12.6L90 34.2L117 0L144 34.2L171 12.6L198 65.7L234 49.5L198 159.3H36L0 49.5Z" fill="url(#paint0_linear_752_1117)"/>
<ellipse cx="163.964" cy="74.0409" rx="18.4091" ry="18.0409" fill="url(#paint1_linear_752_1117)"/>
<ellipse cx="162.123" cy="76.25" rx="10.6773" ry="9.94091" fill="url(#paint2_linear_752_1117)"/>
<ellipse cx="68.2364" cy="74.0409" rx="18.4091" ry="18.0409" fill="url(#paint3_linear_752_1117)"/>
<ellipse cx="69.3409" cy="76.25" rx="10.6773" ry="9.94091" fill="url(#paint4_linear_752_1117)"/>
<g filter="url(#filter0_i_752_1117)">
<path d="M43.2 132.832C43.2 94.8057 74.0264 63.9792 112.053 63.9792H120.883C158.91 63.9792 189.736 94.8057 189.736 132.832C189.736 156.215 170.781 175.17 147.398 175.17H85.5381C62.1554 175.17 43.2 156.215 43.2 132.832Z" fill="url(#paint5_linear_752_1117)"/>
</g>
<path d="M116.55 143.873C120.147 143.873 123.338 144.863 125.588 146.387C127.846 147.917 129.028 149.875 129.028 151.85C129.028 153.825 127.846 155.784 125.588 157.313C123.338 158.837 120.147 159.828 116.55 159.828C112.953 159.828 109.762 158.837 107.512 157.313C105.254 155.784 104.073 153.825 104.073 151.85C104.073 149.875 105.254 147.917 107.512 146.387C109.762 144.863 112.953 143.873 116.55 143.873Z" fill="url(#paint6_linear_752_1117)" stroke="black" stroke-width="2.94545"/>
<ellipse cx="146.204" cy="100.499" rx="24.2161" ry="27.5937" transform="rotate(-33.7753 146.204 100.499)" fill="url(#paint7_linear_752_1117)"/>
<ellipse cx="137.928" cy="96.4999" rx="15.6214" ry="15.0429" fill="white"/>
<path d="M120.7 102.361H149.5V73.5612H120.7V102.361Z" fill="white"/>
<ellipse cx="24.2161" cy="27.5937" rx="24.2161" ry="27.5937" transform="matrix(-0.831224 -0.555937 -0.555937 0.831224 122.66 90.2888)" fill="url(#paint8_linear_752_1117)"/>
<ellipse cx="15.6214" cy="15.0429" rx="15.6214" ry="15.0429" transform="matrix(-1 0 0 1 111.088 80.7207)" fill="white"/>
<path d="M82.9 102.361H111.7V73.5612H82.9V102.361Z" fill="white"/>
<path d="M127.145 131.927C127.145 135.587 119.045 138.555 116.1 138.555C112.418 138.555 105.055 135.587 105.055 131.927C105.055 128.267 106.435 125.3 116.1 125.3C125.765 125.3 127.145 128.267 127.145 131.927Z" fill="url(#paint9_linear_752_1117)"/>
<defs>
<filter id="filter0_i_752_1117" x="43.2" y="63.9792" width="146.536" height="115.588" filterUnits="userSpaceOnUse" color-interpolation-filters="sRGB">
<feFlood flood-opacity="0" result="BackgroundImageFix"/>
<feBlend mode="normal" in="SourceGraphic" in2="BackgroundImageFix" result="shape"/>
<feColorMatrix in="SourceAlpha" type="matrix" values="0 0 0 0 0 0 0 0 0 0 0 0 0 0 0 0 0 0 127 0" result="hardAlpha"/>
<feOffset dy="4.62857"/>
<feGaussianBlur stdDeviation="2.19857"/>
<feComposite in2="hardAlpha" operator="arithmetic" k2="-1" k3="1"/>
<feColorMatrix type="matrix" values="0 0 0 0 0.634178 0 0 0 0 0.254808 0 0 0 0 1 0 0 0 0.24 0"/>
<feBlend mode="normal" in2="shape" result="effect1_innerShadow_752_1117"/>
</filter>
<linearGradient id="paint0_linear_752_1117" x1="117" y1="0" x2="117" y2="159.3" gradientUnits="userSpaceOnUse">
<stop stop-color="#FF6F00"/>
<stop offset="1" stop-color="#FFED76"/>
</linearGradient>
<linearGradient id="paint1_linear_752_1117" x1="163.964" y1="56" x2="163.964" y2="92.0818" gradientUnits="userSpaceOnUse">
<stop stop-color="#002F91"/>
<stop offset="1"/>
</linearGradient>
<linearGradient id="paint2_linear_752_1117" x1="162.123" y1="66.3091" x2="162.123" y2="86.1909" gradientUnits="userSpaceOnUse">
<stop stop-color="#A241FF"/>
<stop offset="1"/>
</linearGradient>
<linearGradient id="paint3_linear_752_1117" x1="68.2364" y1="56" x2="68.2364" y2="92.0818" gradientUnits="userSpaceOnUse">
<stop stop-color="#002F91"/>
<stop offset="1"/>
</linearGradient>
<linearGradient id="paint4_linear_752_1117" x1="69.3409" y1="66.3091" x2="69.3409" y2="86.1909" gradientUnits="userSpaceOnUse">
<stop stop-color="#A241FF"/>
<stop offset="1"/>
</linearGradient>
<linearGradient id="paint5_linear_752_1117" x1="116.468" y1="63.9792" x2="116.468" y2="175.17" gradientUnits="userSpaceOnUse">
<stop offset="0.59903" stop-color="white"/>
<stop offset="1" stop-color="#EAD4FF"/>
</linearGradient>
<linearGradient id="paint6_linear_752_1117" x1="116.55" y1="142.4" x2="116.55" y2="161.3" gradientUnits="userSpaceOnUse">
<stop stop-color="#340000"/>
<stop offset="1" stop-color="#FF4848"/>
</linearGradient>
<linearGradient id="paint7_linear_752_1117" x1="146.204" y1="72.9054" x2="146.204" y2="128.093" gradientUnits="userSpaceOnUse">
<stop stop-color="#002F91"/>
<stop offset="1"/>
</linearGradient>
<linearGradient id="paint8_linear_752_1117" x1="24.2161" y1="0" x2="24.2161" y2="55.1874" gradientUnits="userSpaceOnUse">
<stop stop-color="#002F91"/>
<stop offset="1"/>
</linearGradient>
<linearGradient id="paint9_linear_752_1117" x1="116.1" y1="125.3" x2="116.1" y2="138.555" gradientUnits="userSpaceOnUse">
<stop stop-color="#A241FF"/>
<stop offset="1"/>
</linearGradient>
</defs>
</svg>
